<svg xmlns="http://www.w3.org/2000/svg" viewBox="0 0 720 320" font-family="ui-monospace, SFMono-Regular, Menlo, monospace" font-size="13">
  <title>Uniform SQ vs per-dim SQ: range estimation</title>
  <desc>Uniform SQ uses one global [min, max] shared by every dimension; per-dim SQ stores a separate [min_i, max_i] for each dimension. Per-dim handles skewed dimensions better but stores 2D extra floats.</desc>
  <style>
    .panel { fill: #ffffff; stroke: #cfcbc7; stroke-width: 1; }
    .axis  { stroke: #3e3a39; stroke-width: 1; fill: none; }
    .range { stroke: #f4bd37; stroke-width: 4; stroke-linecap: round; }
    .range-narrow { stroke: #b88a16; stroke-width: 4; stroke-linecap: round; }
    .range-wide { stroke: #f4bd37; stroke-width: 4; stroke-linecap: round; }
    .pt { fill: #3e3a39; }
    .lbl { fill: #1a1614; }
    .lbl-muted { fill: #6e6a66; }
    .global { stroke: #b88a16; stroke-width: 1.5; stroke-dasharray: 4 4; }
  </style>

  <!-- Left panel: uniform -->
  <g transform="translate(20,20)">
    <rect class="panel" x="0" y="0" width="330" height="280"/>
    <text class="lbl" x="14" y="22">uniform SQ &#x2014; one shared [min, max]</text>

    <!-- 4 dim rows -->
    <g transform="translate(40,50)">
      <!-- dim 1 -->
      <text class="lbl-muted" x="-30" y="20">d&#x2081;</text>
      <line class="axis" x1="0" y1="20" x2="260" y2="20"/>
      <line class="global" x1="20" y1="10" x2="240" y2="10"/>
      <line class="global" x1="20" y1="30" x2="240" y2="30"/>
      <line class="range" x1="40" y1="20" x2="120" y2="20"/>
      <circle class="pt" cx="60" cy="20" r="3"/>
      <circle class="pt" cx="80" cy="20" r="3"/>
      <circle class="pt" cx="100" cy="20" r="3"/>

      <!-- dim 2 -->
      <text class="lbl-muted" x="-30" y="70">d&#x2082;</text>
      <line class="axis" x1="0" y1="70" x2="260" y2="70"/>
      <line class="global" x1="20" y1="60" x2="240" y2="60"/>
      <line class="global" x1="20" y1="80" x2="240" y2="80"/>
      <line class="range" x1="160" y1="70" x2="230" y2="70"/>
      <circle class="pt" cx="180" cy="70" r="3"/>
      <circle class="pt" cx="200" cy="70" r="3"/>
      <circle class="pt" cx="220" cy="70" r="3"/>

      <!-- dim 3 -->
      <text class="lbl-muted" x="-30" y="120">d&#x2083;</text>
      <line class="axis" x1="0" y1="120" x2="260" y2="120"/>
      <line class="global" x1="20" y1="110" x2="240" y2="110"/>
      <line class="global" x1="20" y1="130" x2="240" y2="130"/>
      <line class="range" x1="90" y1="120" x2="170" y2="120"/>
      <circle class="pt" cx="110" cy="120" r="3"/>
      <circle class="pt" cx="130" cy="120" r="3"/>
      <circle class="pt" cx="150" cy="120" r="3"/>

      <!-- dim 4 -->
      <text class="lbl-muted" x="-30" y="170">d&#x2084;</text>
      <line class="axis" x1="0" y1="170" x2="260" y2="170"/>
      <line class="global" x1="20" y1="160" x2="240" y2="160"/>
      <line class="global" x1="20" y1="180" x2="240" y2="180"/>
      <line class="range" x1="40" y1="170" x2="230" y2="170"/>
      <circle class="pt" cx="60" cy="170" r="3"/>
      <circle class="pt" cx="140" cy="170" r="3"/>
      <circle class="pt" cx="220" cy="170" r="3"/>
    </g>

    <text class="lbl-muted" x="14" y="252">shared range wastes bins on quiet dims</text>
    <text class="lbl-muted" x="14" y="268">storage overhead: 2 floats total</text>
  </g>

  <!-- Right panel: per-dim -->
  <g transform="translate(370,20)">
    <rect class="panel" x="0" y="0" width="330" height="280"/>
    <text class="lbl" x="14" y="22">per-dim SQ &#x2014; [min_i, max_i] per dim</text>

    <g transform="translate(40,50)">
      <!-- dim 1: tight -->
      <text class="lbl-muted" x="-30" y="20">d&#x2081;</text>
      <line class="axis" x1="0" y1="20" x2="260" y2="20"/>
      <line class="global" x1="40" y1="10" x2="120" y2="10"/>
      <line class="global" x1="40" y1="30" x2="120" y2="30"/>
      <line class="range-narrow" x1="40" y1="20" x2="120" y2="20"/>
      <circle class="pt" cx="60" cy="20" r="3"/>
      <circle class="pt" cx="80" cy="20" r="3"/>
      <circle class="pt" cx="100" cy="20" r="3"/>

      <!-- dim 2: tight, shifted -->
      <text class="lbl-muted" x="-30" y="70">d&#x2082;</text>
      <line class="axis" x1="0" y1="70" x2="260" y2="70"/>
      <line class="global" x1="160" y1="60" x2="230" y2="60"/>
      <line class="global" x1="160" y1="80" x2="230" y2="80"/>
      <line class="range-narrow" x1="160" y1="70" x2="230" y2="70"/>
      <circle class="pt" cx="180" cy="70" r="3"/>
      <circle class="pt" cx="200" cy="70" r="3"/>
      <circle class="pt" cx="220" cy="70" r="3"/>

      <!-- dim 3: medium -->
      <text class="lbl-muted" x="-30" y="120">d&#x2083;</text>
      <line class="axis" x1="0" y1="120" x2="260" y2="120"/>
      <line class="global" x1="90" y1="110" x2="170" y2="110"/>
      <line class="global" x1="90" y1="130" x2="170" y2="130"/>
      <line class="range-narrow" x1="90" y1="120" x2="170" y2="120"/>
      <circle class="pt" cx="110" cy="120" r="3"/>
      <circle class="pt" cx="130" cy="120" r="3"/>
      <circle class="pt" cx="150" cy="120" r="3"/>

      <!-- dim 4: wide -->
      <text class="lbl-muted" x="-30" y="170">d&#x2084;</text>
      <line class="axis" x1="0" y1="170" x2="260" y2="170"/>
      <line class="global" x1="40" y1="160" x2="230" y2="160"/>
      <line class="global" x1="40" y1="180" x2="230" y2="180"/>
      <line class="range-wide" x1="40" y1="170" x2="230" y2="170"/>
      <circle class="pt" cx="60" cy="170" r="3"/>
      <circle class="pt" cx="140" cy="170" r="3"/>
      <circle class="pt" cx="220" cy="170" r="3"/>
    </g>

    <text class="lbl-muted" x="14" y="252">every dim uses its full bin budget</text>
    <text class="lbl-muted" x="14" y="268">storage overhead: 2&#xB7;d floats</text>
  </g>
</svg>
